<?xml version="1.0" encoding="utf-8"?>
<!-- Generator: Adobe Illustrator 16.0.0, SVG Export Plug-In . SVG Version: 6.00 Build 0)  -->
<!DOCTYPE svg PUBLIC "-//W3C//DTD SVG 1.1//EN" "http://www.w3.org/Graphics/SVG/1.1/DTD/svg11.dtd">
<svg version="1.1" id="Layer_1" xmlns="http://www.w3.org/2000/svg" xmlns:xlink="http://www.w3.org/1999/xlink" x="0px" y="0px"
	 width="50px" height="50px" viewBox="0 0 50 50" enable-background="new 0 0 50 50" xml:space="preserve">
<g>
	<g>
		<path fill-rule="evenodd" clip-rule="evenodd" fill="none" stroke="#FFFFFF" stroke-width="2" stroke-miterlimit="10" d="
			M13.359,20.143c0,2.499,0,4.996,0,7.494c0,4.809,0.001,9.618,0.001,14.427c0,0.273,0.021,0.55-0.018,0.818
			c-0.178,1.195-0.757,2.126-2.059,2.108c-1.317-0.018-1.926-0.946-1.945-2.186c-0.041-2.732-0.02-5.464-0.024-8.197
			c-0.001-0.799,0-1.597,0-2.396c-0.147,0.002-0.294,0.002-0.442,0.003c0,1.98,0,3.961,0,5.941c0,1.53-0.042,3.062,0.017,4.59
			c0.055,1.437-0.627,2.219-1.995,2.223c-1.396,0.004-1.994-0.858-1.99-2.248c0.019-6.995,0.008-13.99,0.008-20.985
			c0-0.575,0-1.15,0-1.726c-0.144,0-0.287-0.001-0.431-0.001c0,1.399,0.001,2.798-0.001,4.198c0,0.602,0.036,1.207-0.02,1.803
			c-0.083,0.883-0.18,1.882-1.375,1.864c-1.165-0.017-1.319-1.027-1.384-1.892c-0.087-1.141-0.023-2.293-0.023-3.44
			c0-2.131-0.036-4.264,0.013-6.395c0.042-1.834,1.021-2.855,2.844-2.886c3.004-0.053,6.011-0.045,9.017,0.012
			c2.006,0.04,2.854,0.97,2.86,2.969c0.008,2.896-0.002,5.793-0.009,8.689c-0.002,0.438,0.111,0.961-0.086,1.29
			c-0.328,0.542-0.865,0.957-1.315,1.426c-0.404-0.5-1.088-0.964-1.156-1.506c-0.178-1.4-0.084-2.834-0.095-4.255
			c-0.005-0.58,0-1.16,0-1.74C13.621,20.144,13.489,20.144,13.359,20.143z"/>
		<path fill-rule="evenodd" clip-rule="evenodd" fill="none" stroke="#FFFFFF" stroke-width="2" stroke-miterlimit="10" d="
			M8.836,12.838c-1.936-0.004-3.78-1.889-3.732-3.813c0.047-1.93,1.874-3.749,3.805-3.789c1.938-0.04,3.927,1.962,3.864,3.891
			C12.713,10.935,10.691,12.841,8.836,12.838z"/>
	</g>
	<g>
		<path fill-rule="evenodd" clip-rule="evenodd" fill="none" stroke="#FFFFFF" stroke-width="2" stroke-miterlimit="10" d="
			M29.221,20.143c0,2.499,0,4.996,0,7.494c0,4.809,0.001,9.618,0.001,14.427c0,0.273,0.021,0.55-0.019,0.818
			c-0.178,1.195-0.757,2.126-2.058,2.108c-1.319-0.018-1.927-0.946-1.946-2.186c-0.041-2.732-0.019-5.464-0.024-8.197
			c-0.001-0.799,0-1.597,0-2.396c-0.146,0.002-0.294,0.002-0.441,0.003c0,1.98,0,3.961,0,5.941c0,1.53-0.043,3.062,0.016,4.59
			c0.055,1.437-0.627,2.219-1.994,2.223c-1.396,0.004-1.995-0.858-1.991-2.248c0.019-6.995,0.008-13.99,0.008-20.985
			c0-0.575,0-1.15,0-1.726c-0.144,0-0.288-0.001-0.431-0.001c0,1.399,0.001,2.798-0.001,4.198c0,0.602,0.036,1.207-0.02,1.803
			c-0.083,0.883-0.18,1.882-1.374,1.864c-1.167-0.017-1.32-1.027-1.386-1.892c-0.085-1.141-0.022-2.293-0.021-3.44
			c0-2.131-0.036-4.264,0.013-6.395c0.042-1.834,1.022-2.855,2.844-2.886c3.005-0.053,6.012-0.045,9.017,0.012
			c2.007,0.04,2.854,0.97,2.86,2.969c0.009,2.896-0.002,5.793-0.01,8.689c-0.001,0.438,0.111,0.961-0.087,1.29
			c-0.327,0.542-0.864,0.957-1.313,1.426c-0.404-0.5-1.089-0.964-1.156-1.506c-0.178-1.4-0.085-2.834-0.095-4.255
			c-0.006-0.58-0.002-1.16-0.002-1.74C29.481,20.144,29.351,20.144,29.221,20.143z"/>
		<path fill-rule="evenodd" clip-rule="evenodd" fill="none" stroke="#FFFFFF" stroke-width="2" stroke-miterlimit="10" d="
			M24.697,12.838c-1.937-0.004-3.781-1.889-3.732-3.813c0.046-1.93,1.874-3.749,3.805-3.789c1.938-0.04,3.926,1.962,3.863,3.891
			C28.573,10.935,26.551,12.841,24.697,12.838z"/>
	</g>
	<g>
		<path fill-rule="evenodd" clip-rule="evenodd" fill="none" stroke="#FFFFFF" stroke-width="2" stroke-miterlimit="10" d="
			M45.08,20.143c0,2.499,0,4.996,0,7.494c0.001,4.809,0.003,9.618,0.003,14.427c0,0.273,0.021,0.55-0.019,0.818
			c-0.178,1.195-0.758,2.126-2.06,2.108c-1.317-0.018-1.927-0.946-1.944-2.186c-0.041-2.732-0.02-5.464-0.024-8.197
			c-0.001-0.799,0-1.597,0-2.396c-0.147,0.002-0.294,0.002-0.441,0.003c0,1.98,0,3.961,0,5.941c0,1.53-0.043,3.062,0.016,4.59
			c0.057,1.437-0.626,2.219-1.993,2.223c-1.396,0.004-1.994-0.858-1.991-2.248c0.02-6.995,0.009-13.99,0.009-20.985
			c0-0.575,0-1.15,0-1.726c-0.144,0-0.287-0.001-0.431-0.001c0,1.399,0,2.798-0.002,4.198c0,0.602,0.035,1.207-0.02,1.803
			c-0.082,0.883-0.18,1.882-1.374,1.864c-1.166-0.017-1.32-1.027-1.385-1.892c-0.087-1.141-0.023-2.293-0.023-3.44
			c0.001-2.131-0.035-4.264,0.014-6.395c0.043-1.834,1.021-2.855,2.844-2.886c3.006-0.053,6.013-0.045,9.018,0.012
			c2.006,0.04,2.854,0.97,2.859,2.969c0.009,2.896-0.001,5.793-0.009,8.689c-0.002,0.438,0.11,0.961-0.087,1.29
			c-0.327,0.542-0.865,0.957-1.314,1.426c-0.403-0.5-1.088-0.964-1.157-1.506c-0.177-1.4-0.084-2.834-0.094-4.255
			c-0.005-0.58-0.002-1.16-0.002-1.74C45.342,20.144,45.211,20.144,45.08,20.143z"/>
		<path fill-rule="evenodd" clip-rule="evenodd" fill="none" stroke="#FFFFFF" stroke-width="2" stroke-miterlimit="10" d="
			M40.558,12.838c-1.937-0.004-3.78-1.889-3.732-3.813c0.047-1.93,1.874-3.749,3.805-3.789c1.938-0.04,3.928,1.962,3.864,3.891
			C44.434,10.935,42.412,12.841,40.558,12.838z"/>
	</g>
</g>
</svg>
