<?xml version="1.0" encoding="utf-8"?>
<!-- Generator: Adobe Illustrator 16.0.0, SVG Export Plug-In . SVG Version: 6.00 Build 0)  -->
<!DOCTYPE svg PUBLIC "-//W3C//DTD SVG 1.1//EN" "http://www.w3.org/Graphics/SVG/1.1/DTD/svg11.dtd">
<svg version="1.1" id="Layer_1" xmlns="http://www.w3.org/2000/svg" xmlns:xlink="http://www.w3.org/1999/xlink" x="0px" y="0px"
	 width="50px" height="50px" viewBox="0 0 50 50" enable-background="new 0 0 50 50" xml:space="preserve">
<g>
	<g>
		<path fill-rule="evenodd" clip-rule="evenodd" fill="none" stroke="#FFFFFF" stroke-width="2" stroke-miterlimit="10" d="
			M39.561,19.17c1.193,4.293,2.387,8.586,3.636,13.078c-1.534,0-2.928,0-4.538,0c0,3.842,0,7.511,0,11.18
			c0,0.776,0.027,1.554-0.007,2.327c-0.057,1.284-0.492,2.36-1.991,2.349c-1.469-0.013-1.989-1.049-1.998-2.349
			c-0.027-3.62-0.011-7.24-0.012-10.86c0-0.737,0-1.475,0-2.213c-0.151,0-0.305,0-0.457,0c0,3.926,0.007,7.851-0.006,11.775
			c-0.002,0.705,0.147,1.578-0.199,2.075c-0.478,0.685-1.348,1.459-2.078,1.489c-0.575,0.025-1.554-0.93-1.719-1.605
			c-0.298-1.224-0.142-2.562-0.146-3.854c-0.009-3.353-0.003-6.708-0.003-10.294c-1.496,0-2.871,0-4.465,0
			c1.421-4.484,2.756-8.69,4.091-12.897c-0.134-0.05-0.267-0.1-0.4-0.148c-0.475,1.365-0.897,2.751-1.438,4.089
			c-0.504,1.244-1.026,2.504-1.755,3.619c-0.286,0.439-1.149,0.501-1.749,0.736c-0.242-0.66-0.819-1.412-0.667-1.961
			c0.759-2.728,1.705-5.402,2.594-8.093c0.405-1.224,0.924-2.417,1.224-3.666c0.54-2.25,2.012-3.225,4.19-3.27
			c2.262-0.046,4.524-0.007,6.788,0.003c1.459,0.007,2.504,0.717,2.966,2.066c1.377,4.016,2.733,8.041,3.972,12.102
			c0.3,0.978,0.538,2.326-0.922,2.772c-1.487,0.454-1.911-0.824-2.282-1.81c-0.835-2.217-1.537-4.483-2.294-6.729
			C39.783,19.11,39.671,19.14,39.561,19.17z"/>
		<path fill-rule="evenodd" clip-rule="evenodd" fill="none" stroke="#FFFFFF" stroke-width="2" stroke-miterlimit="10" d="
			M39.341,5.669c-0.016,2.248-2.209,4.408-4.496,4.434c-2.31,0.026-4.474-2.129-4.462-4.438c0.013-2.294,2.331-4.566,4.642-4.551
			C37.298,1.128,39.359,3.304,39.341,5.669z"/>
	</g>
	<g>
		<path fill-rule="evenodd" clip-rule="evenodd" fill="none" stroke="#FFFFFF" stroke-width="2" stroke-miterlimit="10" d="
			M17.422,19.095c0,2.954,0,5.907,0,8.861c0,5.685,0.001,11.371,0.001,17.058c0,0.322,0.025,0.65-0.022,0.968
			c-0.209,1.413-0.895,2.514-2.433,2.493c-1.559-0.021-2.279-1.119-2.3-2.585c-0.049-3.229-0.024-6.461-0.028-9.692
			c-0.001-0.943,0-1.889,0-2.833c-0.174,0.001-0.349,0.001-0.522,0.002c0,2.342,0,4.686,0,7.026c0,1.809-0.051,3.62,0.019,5.428
			c0.066,1.698-0.741,2.623-2.358,2.627c-1.65,0.005-2.357-1.016-2.354-2.657c0.022-8.271,0.01-16.543,0.01-24.814
			c0-0.68,0-1.361,0-2.04c-0.17-0.001-0.34-0.002-0.51-0.002c0,1.656,0.001,3.311,0,4.965C6.923,24.609,6.965,25.324,6.9,26.03
			c-0.098,1.044-0.213,2.226-1.625,2.205c-1.378-0.021-1.56-1.216-1.638-2.238c-0.102-1.349-0.027-2.712-0.026-4.069
			c0-2.52-0.042-5.041,0.016-7.559c0.049-2.17,1.207-3.377,3.362-3.415c3.553-0.062,7.108-0.054,10.662,0.015
			c2.374,0.046,3.375,1.146,3.382,3.512c0.01,3.424-0.002,6.849-0.011,10.274c-0.001,0.517,0.132,1.137-0.102,1.525
			c-0.387,0.641-1.023,1.132-1.553,1.686c-0.478-0.591-1.288-1.14-1.369-1.781c-0.209-1.654-0.099-3.351-0.112-5.031
			c-0.005-0.687,0-1.372,0-2.058C17.73,19.096,17.576,19.096,17.422,19.095z"/>
		<path fill-rule="evenodd" clip-rule="evenodd" fill="none" stroke="#FFFFFF" stroke-width="2" stroke-miterlimit="10" d="
			M12.074,10.457c-2.29-0.005-4.471-2.233-4.415-4.509c0.056-2.282,2.216-4.432,4.5-4.48c2.292-0.048,4.644,2.32,4.568,4.601
			C16.657,8.207,14.267,10.46,12.074,10.457z"/>
	</g>
</g>
</svg>
