<?xml version="1.0" encoding="utf-8"?>
<!-- Generator: Adobe Illustrator 16.0.0, SVG Export Plug-In . SVG Version: 6.00 Build 0)  -->
<!DOCTYPE svg PUBLIC "-//W3C//DTD SVG 1.1//EN" "http://www.w3.org/Graphics/SVG/1.1/DTD/svg11.dtd">
<svg version="1.1" id="Layer_1" xmlns="http://www.w3.org/2000/svg" xmlns:xlink="http://www.w3.org/1999/xlink" x="0px" y="0px"
	 width="50px" height="50px" viewBox="0 0 50 50" enable-background="new 0 0 50 50" xml:space="preserve">
<g>
	<path fill-rule="evenodd" clip-rule="evenodd" fill="none" stroke="#FFFFFF" stroke-width="2" stroke-miterlimit="10" d="
		M32.702,16.138c-0.681-0.03-1.359-0.06-2.114-0.093c0-0.911,0-1.771,0-2.784c0.613,0,1.233-0.003,1.854,0.001
		c2.743,0.017,5.489,0.095,8.232,0.025c1.124-0.028,1.446,0.375,1.292,1.388c-0.021,0.137-0.021,0.284,0.001,0.421
		c0.146,0.87-0.272,1.132-1.073,1.044c-0.381-0.041-0.768-0.006-1.243,0.097c5.683,0.949,9.151,3.781,8.564,9.969
		c-0.201,2.123-1.271,3.843-2.971,5.154c-1.635,1.261-3.558,1.749-5.556,2.191c0.318,0.024,0.642,0.095,0.954,0.062
		c1.03-0.105,1.336,0.331,1.266,1.341c-0.104,1.499-0.043,1.495-1.596,1.488c-2.887-0.012-5.772-0.054-8.656,0.009
		c-0.998,0.021-1.316-0.322-1.219-1.258c0.051-0.478,0.009-0.965,0.009-1.525c0.79-0.038,1.467-0.07,2.145-0.103
		c-5.252-0.88-8.754-3.454-8.513-9.217C24.302,18.996,27.961,16.953,32.702,16.138z M33.499,19.564
		c-2.916,0.389-4.249,2.647-3.938,6.301c0.191,2.246,1.752,4.387,3.938,4.119C33.499,26.547,33.499,23.095,33.499,19.564z
		 M38.915,30.199c1.953-0.29,3.307-1.273,3.604-3.054c0.258-1.551,0.228-3.229-0.073-4.772c-0.329-1.691-1.702-2.549-3.53-2.836
		C38.915,23.1,38.915,26.587,38.915,30.199z"/>
	<path fill-rule="evenodd" clip-rule="evenodd" fill="none" stroke="#FFFFFF" stroke-width="2" stroke-miterlimit="10" d="
		M17.514,33.402c-0.176-0.361-0.246-0.559-0.357-0.729c-0.977-1.501-1.96-2.996-3.068-4.686c-1.432,1.797-2.782,3.491-4.261,5.347
		c0.824,0.124,1.397,0.211,2.025,0.306c0,0.857,0,1.686,0,2.604c-3.203,0-6.381,0-9.623,0c0-0.892,0-1.688,0-2.549
		c0.144-0.054,0.297-0.151,0.456-0.16c1.738-0.096,3.081-0.967,4.153-2.241c1.63-1.938,3.203-3.925,4.759-5.922
		c0.177-0.226,0.246-0.76,0.102-0.978c-1.416-2.14-2.885-4.245-4.344-6.356c-1.094-1.581-2.648-2.242-4.606-2.143
		c0-0.947,0-1.802,0-2.759c1.492,0,2.926-0.003,4.359,0c2.147,0.005,4.294,0.049,6.44,0.004c0.851-0.017,1.24,0.223,1.15,1.115
		c-0.052,0.518-0.009,1.046-0.009,1.639c-0.712,0.083-1.326,0.156-2.212,0.26c1.003,1.532,1.91,2.915,2.91,4.442
		c1.19-1.491,2.29-2.871,3.531-4.425c-0.566-0.054-0.897-0.133-1.22-0.108c-0.882,0.066-1.133-0.302-1.101-1.176
		c0.07-1.925-0.207-1.707,1.792-1.707c2.322,0,4.646,0.054,6.967,0.001c0.908-0.021,1.196,0.326,1.112,1.157
		c-0.025,0.245-0.042,0.495-0.016,0.738c0.075,0.715-0.198,1.048-0.949,0.996c-1.185-0.084-2.131,0.445-2.861,1.318
		c-1.622,1.942-3.219,3.906-4.777,5.899c-0.163,0.208-0.125,0.757,0.037,1.003c1.689,2.55,3.402,5.087,5.156,7.592
		c0.938,1.341,1.078,1.36,3.599,1.842c0.035,0.084,0.102,0.177,0.108,0.275c0.149,2.401,0.147,2.407-2.236,2.401
		c-2.604-0.006-5.209-0.022-7.813-0.038c-0.377-0.003-0.754-0.034-1.193-0.057c0-0.922,0-1.754,0-2.665
		C16.126,33.571,16.735,33.497,17.514,33.402z"/>
</g>
</svg>
