<?xml version="1.0" encoding="utf-8"?>
<!-- Generator: Adobe Illustrator 16.0.0, SVG Export Plug-In . SVG Version: 6.00 Build 0)  -->
<!DOCTYPE svg PUBLIC "-//W3C//DTD SVG 1.1//EN" "http://www.w3.org/Graphics/SVG/1.1/DTD/svg11.dtd">
<svg version="1.1" id="Layer_1" xmlns="http://www.w3.org/2000/svg" xmlns:xlink="http://www.w3.org/1999/xlink" x="0px" y="0px"
	 width="50px" height="50px" viewBox="0 0 50 50" enable-background="new 0 0 50 50" xml:space="preserve">
<path fill="#FFFFFF" d="M45.306,42.697c-13.475,0-26.951,0-40.426,0c-0.601-0.21-1.229-0.366-1.798-0.642
	c-1.6-0.778-2.387-2.193-2.859-3.829c0-8.817,0-17.636,0-26.454c0.333-0.747,0.591-1.538,1.013-2.23
	c0.78-1.279,2.102-1.805,3.458-2.24c13.538,0,27.075,0,40.612,0c2.259,0.528,3.742,1.902,4.472,4.098c0,8.942,0,17.883,0,26.826
	c-0.151,0.426-0.281,0.861-0.458,1.276C48.559,41.289,47.098,42.203,45.306,42.697z M44.789,10.178c-13.274,0-26.207,0-39.086,0
	c6.201,6.249,12.388,12.478,18.566,18.715c0.681,0.687,1.218,0.46,1.812-0.136c4.249-4.262,8.507-8.514,12.773-12.759
	C40.761,14.102,42.694,12.231,44.789,10.178z M8.25,40.002c11.152,0,22.292,0,33.413,0c-3.858-3.863-7.687-7.695-11.554-11.566
	c-1.22,1.222-2.464,2.47-3.709,3.717c-1.251,1.25-1.38,1.244-2.596,0.005c-1.293-1.319-2.597-2.627-3.823-3.866
	C16.02,32.245,12.144,36.115,8.25,40.002z M32.179,26.598c-0.016-0.077-0.02-0.037-0.002-0.02c4.312,4.337,8.62,8.677,12.954,12.991
	c0.163,0.163,0.635,0.211,0.848,0.096c1.094-0.588,1.174-1.672,1.175-2.743c0.008-8.197,0.003-16.393-0.001-24.589
	c0-0.227-0.035-0.455-0.056-0.69C42.106,16.646,37.164,21.601,32.179,26.598z M17.829,26.407c-4.87-4.857-9.73-9.706-14.629-14.592
	c0,0.278,0,0.575,0,0.872c0,3.879-0.001,7.758,0,11.636c0,4.499,0.003,8.999-0.003,13.498c-0.001,0.938,0.265,1.69,1.209,2.029
	C8.905,35.346,13.375,30.869,17.829,26.407z"/>
</svg>
