<?xml version="1.0" encoding="utf-8"?>
<!-- Generator: Adobe Illustrator 16.0.0, SVG Export Plug-In . SVG Version: 6.00 Build 0)  -->
<!DOCTYPE svg PUBLIC "-//W3C//DTD SVG 1.1//EN" "http://www.w3.org/Graphics/SVG/1.1/DTD/svg11.dtd">
<svg version="1.1" id="Layer_1" xmlns="http://www.w3.org/2000/svg" xmlns:xlink="http://www.w3.org/1999/xlink" x="0px" y="0px"
	 width="50px" height="50px" viewBox="0 0 50 50" enable-background="new 0 0 50 50" xml:space="preserve">
<g>
	<path fill-rule="evenodd" clip-rule="evenodd" fill="none" stroke="#FFFFFF" stroke-width="2" stroke-miterlimit="10" d="
		M30.427,8.994c-0.506,6.726-0.994,13.451-1.531,20.172c-0.07,0.883-0.316,1.769-0.597,2.616c-0.469,1.413-1.397,2.168-3.007,2.166
		c-1.614,0-2.66-0.757-2.977-2.184c-0.484-2.183-0.836-4.415-1-6.644c-0.435-5.903-0.776-11.812-1.083-17.722
		c-0.209-4.016,1.452-6.232,4.628-6.388c3.369-0.166,5.361,1.664,5.471,5.049c0.03,0.973,0.003,1.95,0.003,2.926
		C30.365,8.988,30.396,8.99,30.427,8.994z"/>
	<path fill-rule="evenodd" clip-rule="evenodd" fill="none" stroke="#FFFFFF" stroke-width="2" stroke-miterlimit="10" d="
		M25.249,48.333c-2.902-0.016-5.306-2.487-5.204-5.351c0.1-2.805,2.453-5.027,5.307-5.012c2.831,0.017,5.176,2.325,5.199,5.116
		C30.574,45.994,28.195,48.349,25.249,48.333z"/>
</g>
</svg>
