<?xml version="1.0" encoding="utf-8"?>
<!-- Generator: Adobe Illustrator 16.0.0, SVG Export Plug-In . SVG Version: 6.00 Build 0)  -->
<!DOCTYPE svg PUBLIC "-//W3C//DTD SVG 1.1//EN" "http://www.w3.org/Graphics/SVG/1.1/DTD/svg11.dtd">
<svg version="1.1" id="Layer_1" xmlns="http://www.w3.org/2000/svg" xmlns:xlink="http://www.w3.org/1999/xlink" x="0px" y="0px"
	 width="50px" height="50px" viewBox="0 0 50 50" enable-background="new 0 0 50 50" xml:space="preserve">
<path fill-rule="evenodd" clip-rule="evenodd" fill="none" stroke="#FFFFFF" stroke-width="2" stroke-miterlimit="10" d="
	M48.926,18.811c0,2.422,0.029,4.676-0.037,6.928c-0.008,0.297-0.428,0.645-0.773,0.87c-5.84,3.795-12.495,4.2-19.562,2.423
	c-2.833-0.712-5.565-1.646-8.318-2.521c-6.736-2.14-12.613-1.172-17.735,2.633c-0.369,0.273-0.76,0.531-1.36,0.949
	c0-0.793-0.001-1.381,0-1.97c0.002-1.201,0.132-2.41-0.026-3.599c-0.169-1.261,0.515-2.07,1.777-2.828
	c4.378-2.63,9.37-3.279,14.777-2.621c4.289,0.522,8.169,1.948,12.191,3.068c2.034,0.565,4.159,1.106,6.295,1.272
	c4.012,0.31,7.262-1.178,10.271-2.952C47.234,19.987,47.972,19.445,48.926,18.811z"/>
</svg>
